<?xml version="1.0" encoding="UTF-8"?><svg xmlns="http://www.w3.org/2000/svg" viewBox="0 0 1920 1080.75"><defs><style>.cls-1{isolation:isolate;}.cls-2,.cls-3{fill:#d7c1aa;}.cls-4{fill:#007b86;}.cls-5,.cls-3{mix-blend-mode:multiply;opacity:.86;}.cls-6{fill:#036a6d;}</style></defs><g class="cls-1"><g id="fonds"><rect class="cls-4" x="0" y=".66" width="1920" height="1080"/><polygon class="cls-3" points="689.9 998.14 689.9 965.13 660.23 965.13 660.23 935.9 638.3 935.9 638.3 906.99 606.44 906.99 606.44 868.59 576.04 868.59 576.04 825.88 534.58 825.88 534.58 804.36 502.28 804.36 502.28 759.23 470.43 759.23 470.43 720.83 423.14 720.83 423.14 696.63 385.35 696.63 385.35 671.07 355.52 671.07 355.52 657.3 318.79 657.3 318.79 641.3 286.94 641.3 286.94 625.31 269.9 625.31 269.9 603.69 239.64 603.69 239.64 586.91 200.97 586.91 200.97 566.88 158.64 566.88 158.64 553.98 115.88 553.98 115.88 533.27 80.79 533.27 80.79 521.25 70.53 521.25 70.53 514.68 56.91 514.68 56.91 507.18 9.98 507.18 9.98 514.68 0 514.68 0 521.25 0 573.15 0 579.72 17.95 579.72 17.95 591.42 52.18 591.42 52.18 623.98 111.35 623.98 111.35 646.11 111.35 663.71 170.51 663.71 170.51 684.1 203.03 684.1 203.03 706.24 237.19 706.24 237.19 731.65 267.02 731.65 267.02 750.92 294.84 750.92 294.84 773.43 342.13 773.43 342.13 797.63 373.99 797.63 373.99 836.03 406.28 836.03 406.28 871.64 449.53 871.64 449.53 913.69 478.15 913.69 478.15 945.39 510 945.39 510 983.79 531.52 983.79 531.52 1013.47 549.57 1013.47 549.57 1054.75 567.66 1054.75 567.66 1078.56 713.17 1078.56 713.17 998.14 689.9 998.14"/><polygon class="cls-6" points="771.27 1039.05 771.27 1009.08 752.95 1009.08 752.95 979.71 730.12 979.71 730.12 949.09 706.85 949.09 706.85 916.08 677.18 916.08 677.18 886.85 655.25 886.85 655.25 857.94 623.39 857.94 623.39 819.54 592.99 819.54 592.99 776.83 551.53 776.83 551.53 755.32 519.23 755.32 519.23 710.19 487.38 710.19 487.38 671.79 440.09 671.79 440.09 647.58 402.3 647.58 402.3 622.03 372.47 622.03 372.47 608.25 335.74 608.25 335.74 592.25 303.89 592.25 303.89 576.26 286.85 576.26 286.85 554.64 256.59 554.64 256.59 537.86 217.92 537.86 217.92 517.83 175.59 517.83 175.59 504.93 132.83 504.93 132.83 484.23 97.74 484.23 97.74 472.21 87.48 472.21 87.48 465.63 73.86 465.63 73.86 458.13 0 458.13 0 465.63 0 472.21 0 516.6 0 524.1 0 530.68 34.9 530.68 34.9 542.37 69.13 542.37 69.13 574.93 128.3 574.93 128.3 597.06 128.3 614.66 187.46 614.66 187.46 635.05 219.98 635.05 219.98 657.19 254.14 657.19 254.14 682.6 283.97 682.6 283.97 701.88 311.79 701.88 311.79 724.38 359.08 724.38 359.08 748.59 390.94 748.59 390.94 786.98 423.23 786.98 423.23 822.59 466.48 822.59 466.48 864.64 495.09 864.64 495.09 896.34 526.95 896.34 526.95 934.74 548.47 934.74 548.47 964.42 566.52 964.42 566.52 1005.7 584.61 1005.7 584.61 1029.51 598.9 1029.51 598.9 1059.36 629.8 1059.36 629.8 1080.75 785.78 1080.75 785.78 1039.05 771.27 1039.05"/><g class="cls-5"><rect class="cls-2" x="1621.83" y="778.6" width="11.79" height="32.72" transform="translate(390.71 -528.39) rotate(20.9)"/><rect class="cls-2" x="1604.96" y="822.78" width="11.79" height="32.72" transform="translate(405.36 -519.46) rotate(20.9)"/><rect class="cls-2" x="1591.83" y="791.8" width="11.79" height="32.72" transform="translate(272.75 2012.44) rotate(-69.1)"/><rect class="cls-2" x="1636.01" y="808.67" width="11.79" height="32.72" transform="translate(285.4 2064.57) rotate(-69.1)"/></g><g class="cls-5"><rect class="cls-2" x="102.93" y="876.75" width="15.79" height="43.83" transform="translate(-395.21 147.79) rotate(-26.95)"/><rect class="cls-2" x="131.64" y="933.22" width="15.79" height="43.83" transform="translate(-417.69 166.93) rotate(-26.95)"/><rect class="cls-2" x="89.08" y="918.41" width="15.79" height="43.83" transform="translate(-697.31 1452.89) rotate(-116.95)"/><rect class="cls-2" x="145.54" y="889.7" width="15.79" height="43.83" transform="translate(-589.66 1461.51) rotate(-116.95)"/></g><polygon class="cls-3" points="558.16 73.57 572.37 61.91 528.26 8.15 484.99 43.66 491.89 52.07 477.69 63.72 487.17 75.28 461.88 96.02 465.15 100.01 452.67 110.25 459.57 118.66 445.37 130.32 454.85 141.87 429.57 162.61 440.08 175.43 418.2 193.38 423.73 200.13 407.1 213.78 409.69 216.94 393.63 230.12 393.63 230.12 379.48 241.73 370.53 230.82 353.84 244.51 348.68 238.23 331.99 251.92 320.63 238.08 310.11 246.71 293.25 226.16 275.85 240.43 267.09 229.75 247.48 245.84 235.96 231.81 219.27 245.5 207.91 231.66 197.39 240.29 180.53 219.73 166.22 231.47 147.64 208.83 141.47 213.9 122.84 191.19 106.15 204.88 94.79 191.04 84.27 199.67 67.4 179.11 34.03 206.5 79.78 262.26 90.3 253.63 107.16 274.18 123.85 260.49 147.97 289.89 154.14 284.82 170.78 305.1 185.09 293.36 192.9 302.88 203.42 294.25 220.28 314.8 236.97 301.11 248.33 314.95 267.95 298.86 279.46 312.89 296.86 298.62 305.62 309.3 316.14 300.67 333.01 321.22 349.7 307.53 361.06 321.38 377.74 307.68 382.9 313.97 397.05 302.36 406.01 313.27 435.75 288.86 435.75 288.86 469.13 261.48 464.89 256.31 470.45 251.75 464.92 245 505.57 211.64 495.06 198.82 516.94 180.87 507.46 169.31 532.75 148.57 525.84 140.16 540.05 128.5 536.78 124.52 549.26 114.28 539.78 102.72 565.07 81.98 558.16 73.57"/><rect class="cls-3" x="12.65" y="193.76" width="60.68" height="37.4" transform="translate(179.97 44.46) rotate(50.63)"/><polygon class="cls-3" points="1829.36 500.42 1829.36 467.49 1782.07 467.49 1782.07 443.29 1750.21 443.29 1750.21 404.89 1695.19 404.89 1695.19 380.23 1645.87 380.23 1645.87 357.77 1598.58 357.77 1598.58 333.57 1566.72 333.57 1566.72 295.17 1534.43 295.17 1534.43 250.04 1490.68 250.04 1490.68 219.23 1462.56 219.23 1462.56 185.81 1430.71 185.81 1430.71 147.41 1416.25 147.41 1416.25 109.01 1398.41 109.01 1398.41 76.45 1391.13 76.45 1391.13 32.89 1384.51 32.89 1384.51 2.6 1255.23 2.6 1255.23 60.95 1262.84 60.95 1262.84 96.67 1270.12 96.67 1270.12 153.25 1287.95 153.25 1287.95 185.81 1302.41 185.81 1302.41 224.21 1334.27 224.21 1334.27 262.61 1381.56 262.61 1381.56 286.81 1406.13 286.81 1406.13 326.84 1438.42 326.84 1438.42 371.97 1470.28 371.97 1470.28 410.37 1517.57 410.37 1517.57 434.57 1545.73 434.57 1545.73 453.63 1590.13 453.63 1590.13 481.69 1620.46 481.69 1620.46 520.09 1661.15 520.09 1661.15 541.5 1716.79 541.5 1716.79 577.22 1910.37 577.22 1910.37 500.42 1829.36 500.42"/><polygon class="cls-6" points="1871.98 539.56 1871.98 498.48 1790.97 498.48 1790.97 465.56 1743.68 465.56 1743.68 441.35 1711.82 441.35 1711.82 402.96 1656.8 402.96 1656.8 378.3 1607.48 378.3 1607.48 355.83 1560.19 355.83 1560.19 331.63 1528.33 331.63 1528.33 293.23 1496.04 293.23 1496.04 248.1 1452.29 248.1 1452.29 217.3 1424.17 217.3 1424.17 183.87 1392.32 183.87 1392.32 145.47 1377.86 145.47 1377.86 107.08 1360.02 107.08 1360.02 74.52 1352.74 74.52 1352.74 30.95 1346.11 30.95 1346.11 .66 1216.84 .66 1216.84 59.01 1224.45 59.01 1224.45 94.73 1231.73 94.73 1231.73 151.31 1249.56 151.31 1249.56 183.87 1264.02 183.87 1264.02 222.27 1295.88 222.27 1295.88 260.67 1343.17 260.67 1343.17 284.87 1367.74 284.87 1367.74 324.9 1400.03 324.9 1400.03 370.03 1431.89 370.03 1431.89 408.43 1479.18 408.43 1479.18 432.63 1507.34 432.63 1507.34 451.69 1551.73 451.69 1551.73 479.75 1582.07 479.75 1582.07 518.15 1622.76 518.15 1622.76 539.56 1678.4 539.56 1678.4 575.28 1731.68 575.28 1731.68 596.08 1775.19 596.08 1775.19 616 1919.27 616 1919.27 596.08 1919.27 559.48 1919.27 539.56 1871.98 539.56"/><g class="cls-5"><rect class="cls-2" x="1568.18" y="663.42" width="16.7" height="46.36" transform="translate(348.69 -517.26) rotate(20.9)"/><rect class="cls-2" x="1544.27" y="726.02" width="16.7" height="46.36" transform="translate(369.45 -504.61) rotate(20.9)"/><rect class="cls-2" x="1525.67" y="682.13" width="16.7" height="46.36" transform="translate(327.85 1886.77) rotate(-69.1)"/><rect class="cls-2" x="1588.28" y="706.04" width="16.7" height="46.36" transform="translate(345.79 1960.64) rotate(-69.1)"/></g><g class="cls-5"><polygon class="cls-2" points="493.53 353.89 480.53 354.71 480.79 320.57 493.79 319.75 493.53 353.89"/><polygon class="cls-2" points="493.09 413.6 480.09 414.42 480.34 380.28 493.34 379.47 493.09 413.6"/><polygon class="cls-2" points="500.41 372.39 500.5 360.09 536.59 357.83 536.49 370.13 500.41 372.39"/><polygon class="cls-2" points="437.29 376.34 437.38 364.04 473.47 361.78 473.38 374.08 437.29 376.34"/></g><g class="cls-5"><rect class="cls-2" x="412.86" y="400.58" width="8.96" height="24.87"/><rect class="cls-2" x="412.86" y="436.53" width="8.96" height="24.87"/><rect class="cls-2" x="395.14" y="418.09" width="8.96" height="24.87" transform="translate(-30.91 830.15) rotate(-90)"/><rect class="cls-2" x="431.09" y="418.09" width="8.96" height="24.87" transform="translate(5.04 866.1) rotate(-90)"/></g><g class="cls-5"><rect class="cls-2" x="1502.14" y="763.31" width="9.06" height="25.15" transform="translate(375.94 -486.46) rotate(20.9)"/><rect class="cls-2" x="1489.17" y="797.27" width="9.06" height="25.15" transform="translate(387.21 -479.59) rotate(20.9)"/><rect class="cls-2" x="1479.08" y="773.46" width="9.06" height="25.15" transform="translate(220.01 1891.6) rotate(-69.1)"/><rect class="cls-2" x="1513.04" y="786.43" width="9.06" height="25.15" transform="translate(229.74 1931.67) rotate(-69.1)"/></g><g class="cls-5"><rect class="cls-2" x="1695.32" y="154.55" width="26.85" height="74.52" transform="translate(63.16 690.45) rotate(-23.26)"/><rect class="cls-2" x="1737.86" y="253.51" width="26.85" height="74.52" transform="translate(27.53 715.29) rotate(-23.26)"/><rect class="cls-2" x="1667.26" y="223.73" width="26.85" height="74.52" transform="translate(2104.69 1908.11) rotate(-113.26)"/><rect class="cls-2" x="1766.21" y="181.19" width="26.85" height="74.52" transform="translate(2281.8 1939.68) rotate(-113.26)"/></g><polygon class="cls-3" points="14.44 169.74 .06 181.53 .06 209.36 0 209.36 0 211.1 16.71 231.46 45.62 207.74 14.44 169.74"/><polygon class="cls-6" points="593.3 23.14 616.44 0 545.76 0 546.42 .66 529.99 .66 524.41 6.24 532.73 14.57 520.45 26.85 526.46 32.86 518.59 40.73 522.19 44.33 498.37 63.88 505.27 72.29 491.07 83.94 500.55 95.5 475.27 116.24 478.53 120.22 466.05 130.47 472.95 138.88 458.75 150.53 468.23 162.09 442.95 182.83 453.46 195.64 431.58 213.6 437.11 220.35 420.48 234 423.08 237.16 407.01 250.34 407.01 250.34 392.86 261.95 383.91 251.04 367.22 264.73 362.06 258.45 345.37 272.14 334.01 258.3 323.49 266.93 306.63 246.37 289.23 260.65 280.47 249.97 260.86 266.06 249.34 252.03 232.65 265.72 221.29 251.87 210.77 260.5 193.91 239.95 179.6 251.69 161.02 229.05 154.85 234.11 136.22 211.41 119.53 225.1 108.17 211.25 97.65 219.88 80.78 199.33 66.47 211.07 37.59 175.87 20.9 189.55 5.67 172.18 0 176.53 0 222.35 29.07 255.51 40.12 247.02 64.82 277.12 79.13 265.38 93.16 282.48 103.68 273.85 120.54 294.4 137.23 280.71 161.35 310.11 167.52 305.04 184.16 325.32 198.47 313.58 206.28 323.1 216.8 314.47 233.67 335.02 250.35 321.33 261.71 335.17 281.33 319.08 292.85 333.11 310.24 318.84 319 329.52 329.52 320.89 346.39 341.44 363.08 327.75 374.44 341.59 391.13 327.9 396.28 334.19 410.43 322.58 419.39 333.49 449.13 309.08 449.13 309.08 452.53 306.3 452.77 306.1 452.77 306.1 482.51 281.7 478.27 276.53 483.84 271.96 478.3 265.21 518.95 231.86 508.44 219.04 530.32 201.09 520.85 189.53 546.13 168.79 539.23 160.38 553.43 148.72 550.16 144.74 562.64 134.49 553.16 122.94 578.45 102.2 571.54 93.78 585.75 82.13 581.14 76.52 587.57 70.09 581.56 64.08 592.58 53.06 586.79 47.28 602.12 31.96 593.3 23.14"/></g></g></svg>