<?xml version="1.0" encoding="UTF-8"?><svg id="o" xmlns="http://www.w3.org/2000/svg" viewBox="0 0 97.76 93.22"><defs><style>.cls-1{fill:#14a9c1;}.cls-1,.cls-2{stroke:#087587;stroke-miterlimit:10;stroke-width:4px;}.cls-2{fill:none;}</style></defs><polygon class="cls-2" points="79.91 29.23 79.91 19.77 70.85 19.77 70.85 14.57 27.47 14.57 27.47 19.77 18.41 19.77 18.41 29.23 16.01 29.23 16.01 62.67 18.41 62.67 18.41 72.12 27.47 72.12 27.47 80.42 70.85 80.42 70.85 72.12 79.91 72.12 79.91 62.67 81.75 62.67 81.75 29.23 79.91 29.23"/><path class="cls-1" d="M94.56,29.23v-9.45h-3.44v-4.15h-6.43v-4.15h-4.78v-6.35h-9.06v-3.13H27.47v3.13h-9.06v6.35h-4.78v4.15h-6.43v4.15h-3.44v9.45h-1.76v33.45h1.76v9.45h4.35v5.47h5.52v2.83h4.78v6.35h9.06v4.45h43.38v-4.45h9.06v-6.35h4.78v-2.83h7.34v-5.47h2.53v-9.45h1.2V29.23h-1.2ZM79.91,62.67v9.45h-9.06v8.3H27.47v-8.3h-9.06v-9.45h-2.4V29.23h2.4v-9.45h9.06v-5.21h43.38v5.21h9.06v9.45h1.84v33.45h-1.84Z"/></svg>