<?xml version="1.0" encoding="UTF-8"?><svg id="x" xmlns="http://www.w3.org/2000/svg" viewBox="0 0 94.66 94.98"><defs><style>.cls-1{fill:#d11c3e;}.cls-2{fill:#600815;}</style></defs><polygon class="cls-1" points="1.34 80.87 13.95 93.3 93.3 13.95 80.87 1.28 1.34 80.87"/><polygon class="cls-1" points="93.36 81.4 81.26 93.68 1.34 13.45 13.54 1.14 93.36 81.4"/><rect class="cls-2" x=".13" y="12.31" width="2.61" height="2.61"/><rect class="cls-2" x="2.65" y="14.83" width="2.61" height="2.61"/><rect class="cls-2" x="5.2" y="17.38" width="2.61" height="2.61"/><rect class="cls-2" x="7.73" y="19.91" width="2.61" height="2.61"/><rect class="cls-2" x="19.26" y="31.44" width="2.61" height="2.61"/><rect class="cls-2" x="21.79" y="33.97" width="2.61" height="2.61"/><rect class="cls-2" x="24.34" y="36.52" width="2.61" height="2.61"/><rect class="cls-2" x="26.86" y="39.04" width="2.61" height="2.61"/><rect class="cls-2" x="9.69" y="21.88" width="2.61" height="2.61"/><rect class="cls-2" x="12.22" y="24.4" width="2.61" height="2.61"/><rect class="cls-2" x="14.77" y="26.95" width="2.61" height="2.61"/><rect class="cls-2" x="17.29" y="29.48" width="2.61" height="2.61"/><rect class="cls-2" x="28.63" y="40.81" width="2.61" height="2.61"/><rect class="cls-2" x="31.16" y="43.34" width="2.61" height="2.61"/><rect class="cls-2" x="33.71" y="45.89" width="2.61" height="2.61"/><rect class="cls-2" x="12.31" y=".13" width="2.61" height="2.61"/><rect class="cls-2" x="14.83" y="2.65" width="2.61" height="2.61"/><rect class="cls-2" x="17.38" y="5.2" width="2.61" height="2.61"/><rect class="cls-2" x="19.91" y="7.73" width="2.61" height="2.61"/><rect class="cls-2" x="31.44" y="19.26" width="2.61" height="2.61"/><rect class="cls-2" x="33.97" y="21.79" width="2.61" height="2.61"/><rect class="cls-2" x="36.52" y="24.34" width="2.61" height="2.61"/><rect class="cls-2" x="39.04" y="26.86" width="2.61" height="2.61"/><rect class="cls-2" x="21.88" y="9.69" width="2.61" height="2.61"/><rect class="cls-2" x="24.4" y="12.22" width="2.61" height="2.61"/><rect class="cls-2" x="26.95" y="14.77" width="2.61" height="2.61"/><rect class="cls-2" x="29.48" y="17.29" width="2.61" height="2.61"/><rect class="cls-2" x="40.81" y="28.63" width="2.61" height="2.61"/><rect class="cls-2" x="43.34" y="31.16" width="2.61" height="2.61"/><rect class="cls-2" x="45.89" y="33.71" width="2.61" height="2.61"/><rect class="cls-2" x="7.62" y="4.64" width="2.61" height="2.61" transform="translate(2.98 14.87) rotate(-90)"/><rect class="cls-2" x="10.15" y="2.11" width="2.61" height="2.61" transform="translate(8.04 14.87) rotate(-90)"/><rect class="cls-2" x=".04" y="12.22" width="2.61" height="2.61" transform="translate(-12.18 14.87) rotate(-90)"/><rect class="cls-2" x="2.56" y="9.69" width="2.61" height="2.61" transform="translate(-7.13 14.87) rotate(-90)"/><rect class="cls-2" x="5.12" y="7.13" width="2.61" height="2.61" transform="translate(-2.01 14.87) rotate(-90)"/><polygon class="cls-2" points="79.47 2.74 79.43 .09 82.08 .13 82.12 2.77 79.47 2.74"/><polygon class="cls-2" points="76.94 5.26 76.91 2.62 79.56 2.65 79.59 5.3 76.94 5.26"/><polygon class="cls-2" points="74.4 7.81 74.36 5.16 77.01 5.2 77.04 7.85 74.4 7.81"/><polygon class="cls-2" points="71.87 10.34 71.83 7.69 74.48 7.73 74.52 10.38 71.87 10.34"/><polygon class="cls-2" points="60.34 21.87 60.3 19.22 62.95 19.26 62.98 21.91 60.34 21.87"/><polygon class="cls-2" points="57.81 24.4 57.77 21.75 60.42 21.79 60.46 24.44 57.81 24.4"/><polygon class="cls-2" points="55.26 26.95 55.22 24.3 57.87 24.34 57.91 26.98 55.26 26.95"/><polygon class="cls-2" points="52.73 29.47 52.7 26.83 55.35 26.86 55.38 29.51 52.73 29.47"/><polygon class="cls-2" points="69.9 12.31 69.87 9.66 72.52 9.69 72.55 12.34 69.9 12.31"/><polygon class="cls-2" points="67.38 14.83 67.34 12.18 69.99 12.22 70.03 14.87 67.38 14.83"/><polygon class="cls-2" points="64.83 17.38 64.79 14.73 67.44 14.77 67.48 17.42 64.83 17.38"/><polygon class="cls-2" points="62.3 19.91 62.27 17.26 64.91 17.29 64.95 19.94 62.3 19.91"/><polygon class="cls-2" points="50.96 31.24 50.93 28.6 53.58 28.63 53.61 31.28 50.96 31.24"/><polygon class="cls-2" points="48.44 33.77 48.4 31.12 51.05 31.16 51.09 33.81 48.44 33.77"/><polygon class="cls-2" points="45.89 36.32 45.85 33.67 48.5 33.71 48.54 36.36 45.89 36.32"/><polygon class="cls-2" points="91.99 15.26 91.96 12.61 94.6 12.65 94.64 15.3 91.99 15.26"/><polygon class="cls-2" points="89.47 17.79 89.43 15.14 92.08 15.17 92.11 17.82 89.47 17.79"/><polygon class="cls-2" points="86.92 20.33 86.88 17.68 89.53 17.72 89.57 20.37 86.92 20.33"/><polygon class="cls-2" points="84.39 22.86 84.35 20.21 87 20.25 87.04 22.9 84.39 22.86"/><polygon class="cls-2" points="72.86 34.39 72.82 31.75 75.47 31.78 75.51 34.43 72.86 34.39"/><polygon class="cls-2" points="70.33 36.92 70.29 34.27 72.94 34.31 72.98 36.96 70.33 36.92"/><polygon class="cls-2" points="67.78 39.47 67.75 36.82 70.39 36.86 70.43 39.51 67.78 39.47"/><polygon class="cls-2" points="65.26 42 65.22 39.35 67.87 39.38 67.9 42.03 65.26 42"/><polygon class="cls-2" points="82.42 24.83 82.39 22.18 85.04 22.21 85.07 24.86 82.42 24.83"/><polygon class="cls-2" points="79.9 27.35 79.86 24.7 82.51 24.74 82.55 27.39 79.9 27.35"/><polygon class="cls-2" points="77.35 29.9 77.31 27.25 79.96 27.29 80 29.94 77.35 29.9"/><polygon class="cls-2" points="74.82 32.43 74.79 29.78 77.44 29.81 77.47 32.46 74.82 32.43"/><polygon class="cls-2" points="63.49 43.77 63.45 41.12 66.1 41.15 66.13 43.8 63.49 43.77"/><polygon class="cls-2" points="60.96 46.29 60.92 43.64 63.57 43.68 63.61 46.33 60.96 46.29"/><polygon class="cls-2" points="58.41 48.84 58.37 46.19 61.02 46.23 61.06 48.88 58.41 48.84"/><polygon class="cls-2" points="90 10.48 87.35 10.44 87.32 7.79 89.97 7.83 90 10.48"/><polygon class="cls-2" points="92.6 13.08 89.95 13.04 89.91 10.39 92.56 10.43 92.6 13.08"/><polygon class="cls-2" points="82.21 2.69 79.56 2.65 79.52 0 82.17 .04 82.21 2.69"/><polygon class="cls-2" points="84.8 5.28 82.16 5.25 82.12 2.6 84.77 2.63 84.8 5.28"/><polygon class="cls-2" points="87.43 7.91 84.79 7.88 84.75 5.23 87.4 5.26 87.43 7.91"/><rect class="cls-2" x="79.87" y="92.28" width="2.61" height="2.61" transform="translate(-12.41 174.76) rotate(-90)"/><rect class="cls-2" x="77.34" y="89.75" width="2.61" height="2.61" transform="translate(-12.41 169.71) rotate(-90)"/><rect class="cls-2" x="74.79" y="87.21" width="2.61" height="2.61" transform="translate(-12.41 164.61) rotate(-90)"/><rect class="cls-2" x="72.27" y="84.68" width="2.61" height="2.61" transform="translate(-12.41 159.56) rotate(-90)"/><rect class="cls-2" x="60.73" y="73.15" width="2.61" height="2.61" transform="translate(-12.41 136.49) rotate(-90)"/><rect class="cls-2" x="58.21" y="70.62" width="2.61" height="2.61" transform="translate(-12.41 131.44) rotate(-90)"/><rect class="cls-2" x="55.66" y="68.07" width="2.61" height="2.61" transform="translate(-12.41 126.34) rotate(-90)"/><rect class="cls-2" x="53.13" y="65.54" width="2.61" height="2.61" transform="translate(-12.41 121.29) rotate(-90)"/><rect class="cls-2" x="70.3" y="82.71" width="2.61" height="2.61" transform="translate(-12.41 155.62) rotate(-90)"/><rect class="cls-2" x="67.77" y="80.19" width="2.61" height="2.61" transform="translate(-12.41 150.57) rotate(-90)"/><rect class="cls-2" x="65.22" y="77.64" width="2.61" height="2.61" transform="translate(-12.41 145.48) rotate(-90)"/><rect class="cls-2" x="62.7" y="75.11" width="2.61" height="2.61" transform="translate(-12.41 140.42) rotate(-90)"/><rect class="cls-2" x="51.36" y="63.77" width="2.61" height="2.61" transform="translate(-12.41 117.75) rotate(-90)"/><rect class="cls-2" x="48.83" y="61.25" width="2.61" height="2.61" transform="translate(-12.41 112.69) rotate(-90)"/><rect class="cls-2" x="92.05" y="80.1" width="2.61" height="2.61" transform="translate(11.95 174.76) rotate(-90)"/><rect class="cls-2" x="89.52" y="77.57" width="2.61" height="2.61" transform="translate(11.95 169.71) rotate(-90)"/><rect class="cls-2" x="86.97" y="75.02" width="2.61" height="2.61" transform="translate(11.95 164.61) rotate(-90)"/><rect class="cls-2" x="84.45" y="72.5" width="2.61" height="2.61" transform="translate(11.95 159.56) rotate(-90)"/><rect class="cls-2" x="72.91" y="60.96" width="2.61" height="2.61" transform="translate(11.95 136.49) rotate(-90)"/><rect class="cls-2" x="70.39" y="58.44" width="2.61" height="2.61" transform="translate(11.95 131.44) rotate(-90)"/><rect class="cls-2" x="67.84" y="55.89" width="2.61" height="2.61" transform="translate(11.95 126.34) rotate(-90)"/><rect class="cls-2" x="65.31" y="53.36" width="2.61" height="2.61" transform="translate(11.95 121.29) rotate(-90)"/><rect class="cls-2" x="82.48" y="70.53" width="2.61" height="2.61" transform="translate(11.95 155.62) rotate(-90)"/><rect class="cls-2" x="79.96" y="68" width="2.61" height="2.61" transform="translate(11.95 150.57) rotate(-90)"/><rect class="cls-2" x="77.41" y="65.46" width="2.61" height="2.61" transform="translate(11.95 145.48) rotate(-90)"/><rect class="cls-2" x="74.88" y="62.93" width="2.61" height="2.61" transform="translate(11.95 140.42) rotate(-90)"/><rect class="cls-2" x="63.54" y="51.59" width="2.61" height="2.61" transform="translate(11.95 117.75) rotate(-90)"/><rect class="cls-2" x="61.02" y="49.07" width="2.61" height="2.61" transform="translate(11.95 112.69) rotate(-90)"/><rect class="cls-2" x="87.54" y="84.79" width="2.61" height="2.61"/><rect class="cls-2" x="90.06" y="82.26" width="2.61" height="2.61"/><rect class="cls-2" x="79.96" y="92.37" width="2.61" height="2.61"/><rect class="cls-2" x="82.48" y="89.84" width="2.61" height="2.61"/><rect class="cls-2" x="85.04" y="87.28" width="2.61" height="2.61"/><polygon class="cls-2" points="2.74 79.47 .09 79.43 .13 82.08 2.77 82.12 2.74 79.47"/><polygon class="cls-2" points="5.26 76.94 2.62 76.91 2.65 79.56 5.3 79.59 5.26 76.94"/><polygon class="cls-2" points="7.81 74.4 5.16 74.36 5.2 77.01 7.85 77.04 7.81 74.4"/><polygon class="cls-2" points="10.34 71.87 7.69 71.83 7.73 74.48 10.38 74.52 10.34 71.87"/><polygon class="cls-2" points="21.87 60.34 19.22 60.3 19.26 62.95 21.91 62.98 21.87 60.34"/><polygon class="cls-2" points="24.4 57.81 21.75 57.77 21.79 60.42 24.44 60.46 24.4 57.81"/><polygon class="cls-2" points="26.95 55.26 24.3 55.22 24.34 57.87 26.98 57.91 26.95 55.26"/><polygon class="cls-2" points="29.47 52.73 26.83 52.7 26.86 55.35 29.51 55.38 29.47 52.73"/><polygon class="cls-2" points="12.31 69.9 9.66 69.87 9.69 72.52 12.34 72.55 12.31 69.9"/><polygon class="cls-2" points="14.83 67.38 12.18 67.34 12.22 69.99 14.87 70.03 14.83 67.38"/><polygon class="cls-2" points="17.38 64.83 14.73 64.79 14.77 67.44 17.42 67.48 17.38 64.83"/><polygon class="cls-2" points="19.91 62.3 17.26 62.27 17.29 64.91 19.94 64.95 19.91 62.3"/><polygon class="cls-2" points="31.24 50.96 28.6 50.93 28.63 53.58 31.28 53.61 31.24 50.96"/><polygon class="cls-2" points="33.77 48.44 31.12 48.4 31.16 51.05 33.81 51.09 33.77 48.44"/><polygon class="cls-2" points="36.32 45.89 33.67 45.85 33.71 48.5 36.36 48.54 36.32 45.89"/><polygon class="cls-2" points="15.26 91.99 12.61 91.96 12.65 94.6 15.3 94.64 15.26 91.99"/><polygon class="cls-2" points="17.79 89.47 15.14 89.43 15.17 92.08 17.82 92.11 17.79 89.47"/><polygon class="cls-2" points="20.33 86.92 17.68 86.88 17.72 89.53 20.37 89.57 20.33 86.92"/><polygon class="cls-2" points="22.86 84.39 20.21 84.35 20.25 87 22.9 87.04 22.86 84.39"/><polygon class="cls-2" points="34.39 72.86 31.75 72.82 31.78 75.47 34.43 75.51 34.39 72.86"/><polygon class="cls-2" points="36.92 70.33 34.27 70.29 34.31 72.94 36.96 72.98 36.92 70.33"/><polygon class="cls-2" points="39.47 67.78 36.82 67.75 36.86 70.39 39.51 70.43 39.47 67.78"/><polygon class="cls-2" points="42 65.26 39.35 65.22 39.38 67.87 42.03 67.9 42 65.26"/><polygon class="cls-2" points="24.83 82.42 22.18 82.39 22.21 85.04 24.86 85.07 24.83 82.42"/><polygon class="cls-2" points="27.35 79.9 24.7 79.86 24.74 82.51 27.39 82.55 27.35 79.9"/><polygon class="cls-2" points="29.9 77.35 27.25 77.31 27.29 79.96 29.94 80 29.9 77.35"/><polygon class="cls-2" points="32.43 74.82 29.78 74.79 29.81 77.44 32.46 77.47 32.43 74.82"/><polygon class="cls-2" points="43.77 63.48 41.12 63.45 41.15 66.1 43.8 66.13 43.77 63.48"/><polygon class="cls-2" points="46.29 60.96 43.64 60.92 43.68 63.57 46.33 63.61 46.29 60.96"/><polygon class="cls-2" points="48.84 58.41 46.19 58.37 46.23 61.02 48.88 61.06 48.84 58.41"/><polygon class="cls-2" points="10.48 90 10.44 87.35 7.79 87.32 7.83 89.97 10.48 90"/><polygon class="cls-2" points="13.08 92.6 13.04 89.95 10.39 89.91 10.43 92.56 13.08 92.6"/><polygon class="cls-2" points="2.69 82.21 2.65 79.56 0 79.52 .04 82.17 2.69 82.21"/><polygon class="cls-2" points="5.28 84.8 5.25 82.16 2.6 82.12 2.63 84.77 5.28 84.8"/><polygon class="cls-2" points="7.91 87.43 7.88 84.79 5.23 84.75 5.26 87.4 7.91 87.43"/></svg>