<?xml version="1.0" encoding="UTF-8"?><svg id="titre" xmlns="http://www.w3.org/2000/svg" viewBox="0 0 443.1 90.63"><defs><style>.cls-1{fill:#d11c3e;}.cls-2{fill:#14a9c1;}.cls-2,.cls-3{stroke:#087587;stroke-miterlimit:10;stroke-width:4px;}.cls-3{fill:none;}.cls-4{fill:#600815;}</style></defs><path d="M0,0h54.36v18.12h-18.12v72.48h-18.12V18.12H0V0Z"/><path d="M63.77,31.1h11.9v59.5h-11.9V31.1Z"/><path d="M105.93,74.73h3.97v-3.97h11.9v11.9h-3.97v3.97h-3.97v3.97h-23.8v-3.97h-3.97v-3.97h-3.97v-43.64h3.97v-3.97h3.97v-3.97h23.8v3.97h3.97v3.97h3.97v11.9h-11.9v-3.97h-3.97v-3.97h-7.93v3.97h-3.97v27.77h3.97v3.97h7.93v-3.97Z"/><path d="M153.53,31.1h35.7v11.9h-11.9v47.6h-11.9v-47.6h-11.9v-11.9Z"/><path d="M224.93,74.73h-15.87v15.87h-11.9v-43.64h3.97v-3.97h3.97v-3.97h3.97v-3.97h3.97v-3.97h7.93v3.97h3.97v3.97h3.97v3.97h3.97v3.97h3.97v43.64h-11.9v-15.87ZM209.06,62.83h15.87v-11.9h-3.97v-3.97h-7.93v3.97h-3.97v11.9Z"/><path d="M268.57,74.73h3.97v-3.97h11.9v11.9h-3.97v3.97h-3.97v3.97h-23.8v-3.97h-3.97v-3.97h-3.97v-43.64h3.97v-3.97h3.97v-3.97h23.8v3.97h3.97v3.97h3.97v11.9h-11.9v-3.97h-3.97v-3.97h-7.93v3.97h-3.97v27.77h3.97v3.97h7.93v-3.97Z"/><path d="M316.17,31.1h35.7v11.9h-11.9v47.6h-11.9v-47.6h-11.9v-11.9Z"/><path d="M419.3,78.7h23.8v11.9h-35.7V31.1h35.7v11.9h-23.8v11.9h19.83v11.9h-19.83v11.9Z"/><polygon class="cls-1" points="52.58 31.63 57.28 36.27 86.86 6.69 82.22 1.97 52.58 31.63"/><polygon class="cls-1" points="86.88 31.83 82.37 36.41 52.58 6.51 57.13 1.92 86.88 31.83"/><rect class="cls-4" x="52.13" y="6.08" width=".97" height=".97"/><rect class="cls-4" x="53.07" y="7.02" width=".97" height=".97"/><rect class="cls-4" x="54.02" y="7.97" width=".97" height=".97"/><rect class="cls-4" x="54.96" y="8.91" width=".97" height=".97"/><rect class="cls-4" x="59.26" y="13.21" width=".97" height=".97"/><rect class="cls-4" x="60.2" y="14.15" width=".97" height=".97"/><rect class="cls-4" x="61.15" y="15.1" width=".97" height=".97"/><rect class="cls-4" x="62.1" y="16.05" width=".97" height=".97"/><rect class="cls-4" x="55.7" y="9.65" width=".97" height=".97"/><rect class="cls-4" x="56.64" y="10.59" width=".97" height=".97"/><rect class="cls-4" x="57.59" y="11.54" width=".97" height=".97"/><rect class="cls-4" x="58.53" y="12.48" width=".97" height=".97"/><rect class="cls-4" x="62.76" y="16.71" width=".97" height=".97"/><rect class="cls-4" x="63.7" y="17.65" width=".97" height=".97"/><rect class="cls-4" x="64.65" y="18.6" width=".97" height=".97"/><rect class="cls-4" x="56.67" y="1.54" width=".97" height=".97"/><rect class="cls-4" x="57.61" y="2.48" width=".97" height=".97"/><rect class="cls-4" x="58.56" y="3.43" width=".97" height=".97"/><rect class="cls-4" x="59.5" y="4.37" width=".97" height=".97"/><rect class="cls-4" x="63.8" y="8.67" width=".97" height=".97"/><rect class="cls-4" x="64.74" y="9.61" width=".97" height=".97"/><rect class="cls-4" x="65.69" y="10.56" width=".97" height=".97"/><rect class="cls-4" x="66.64" y="11.51" width=".97" height=".97"/><rect class="cls-4" x="60.24" y="5.11" width=".97" height=".97"/><rect class="cls-4" x="61.18" y="6.05" width=".97" height=".97"/><rect class="cls-4" x="62.13" y="7" width=".97" height=".97"/><rect class="cls-4" x="63.07" y="7.94" width=".97" height=".97"/><rect class="cls-4" x="67.3" y="12.17" width=".97" height=".97"/><rect class="cls-4" x="68.24" y="13.11" width=".97" height=".97"/><rect class="cls-4" x="69.19" y="14.06" width=".97" height=".97"/><rect class="cls-4" x="54.92" y="3.22" width=".97" height=".97" transform="translate(51.7 59.12) rotate(-90)"/><rect class="cls-4" x="55.87" y="2.28" width=".97" height=".97" transform="translate(53.59 59.12) rotate(-90)"/><rect class="cls-4" x="52.1" y="6.05" width=".97" height=".97" transform="translate(46.05 59.12) rotate(-90)"/><rect class="cls-4" x="53.04" y="5.11" width=".97" height=".97" transform="translate(47.93 59.12) rotate(-90)"/><rect class="cls-4" x="53.99" y="4.15" width=".97" height=".97" transform="translate(49.84 59.12) rotate(-90)"/><polygon class="cls-4" points="81.7 2.51 81.69 1.53 82.68 1.54 82.69 2.53 81.7 2.51"/><polygon class="cls-4" points="80.76 3.46 80.75 2.47 81.74 2.48 81.75 3.47 80.76 3.46"/><polygon class="cls-4" points="79.81 4.41 79.8 3.42 80.79 3.43 80.8 4.42 79.81 4.41"/><polygon class="cls-4" points="78.87 5.35 78.86 4.36 79.84 4.37 79.86 5.36 78.87 5.35"/><polygon class="cls-4" points="74.57 9.65 74.56 8.66 75.55 8.67 75.56 9.66 74.57 9.65"/><polygon class="cls-4" points="73.63 10.59 73.62 9.6 74.6 9.61 74.62 10.6 73.63 10.59"/><polygon class="cls-4" points="72.68 11.54 72.67 10.55 73.65 10.56 73.67 11.55 72.68 11.54"/><polygon class="cls-4" points="71.74 12.48 71.73 11.49 72.71 11.51 72.73 12.49 71.74 12.48"/><polygon class="cls-4" points="78.14 6.08 78.12 5.09 79.11 5.11 79.12 6.09 78.14 6.08"/><polygon class="cls-4" points="77.2 7.02 77.18 6.03 78.17 6.05 78.18 7.04 77.2 7.02"/><polygon class="cls-4" points="76.25 7.97 76.23 6.98 77.22 7 77.23 7.99 76.25 7.97"/><polygon class="cls-4" points="75.3 8.91 75.29 7.93 76.28 7.94 76.29 8.93 75.3 8.91"/><polygon class="cls-4" points="71.08 13.14 71.07 12.15 72.05 12.17 72.07 13.15 71.08 13.14"/><polygon class="cls-4" points="70.14 14.08 70.12 13.09 71.11 13.11 71.12 14.09 70.14 14.08"/><polygon class="cls-4" points="69.19 15.03 69.17 14.04 70.16 14.06 70.17 15.04 69.19 15.03"/><polygon class="cls-4" points="86.37 7.18 86.36 6.19 87.34 6.21 87.36 7.19 86.37 7.18"/><polygon class="cls-4" points="85.43 8.12 85.41 7.14 86.4 7.15 86.42 8.14 85.43 8.12"/><polygon class="cls-4" points="84.48 9.07 84.47 8.09 85.45 8.1 85.47 9.09 84.48 9.07"/><polygon class="cls-4" points="83.54 10.01 83.52 9.03 84.51 9.04 84.52 10.03 83.54 10.01"/><polygon class="cls-4" points="79.24 14.31 79.22 13.33 80.21 13.34 80.23 14.33 79.24 14.31"/><polygon class="cls-4" points="78.3 15.25 78.28 14.27 79.27 14.28 79.28 15.27 78.3 15.25"/><polygon class="cls-4" points="77.35 16.2 77.33 15.22 78.32 15.23 78.33 16.22 77.35 16.2"/><polygon class="cls-4" points="76.41 17.15 76.39 16.16 77.38 16.17 77.39 17.16 76.41 17.15"/><polygon class="cls-4" points="82.8 10.75 82.79 9.76 83.78 9.77 83.79 10.76 82.8 10.75"/><polygon class="cls-4" points="81.86 11.69 81.85 10.7 82.84 10.71 82.85 11.7 81.86 11.69"/><polygon class="cls-4" points="80.91 12.64 80.9 11.65 81.89 11.66 81.9 12.65 80.91 12.64"/><polygon class="cls-4" points="79.97 13.58 79.96 12.59 80.94 12.61 80.96 13.59 79.97 13.58"/><polygon class="cls-4" points="75.75 17.81 75.73 16.82 76.72 16.83 76.73 17.82 75.75 17.81"/><polygon class="cls-4" points="74.8 18.75 74.79 17.76 75.78 17.77 75.79 18.76 74.8 18.75"/><polygon class="cls-4" points="73.85 19.7 73.84 18.71 74.83 18.72 74.84 19.71 73.85 19.7"/><polygon class="cls-4" points="85.63 5.4 84.64 5.39 84.63 4.4 85.61 4.41 85.63 5.4"/><polygon class="cls-4" points="86.6 6.37 85.61 6.35 85.6 5.37 86.58 5.38 86.6 6.37"/><polygon class="cls-4" points="82.72 2.49 81.74 2.48 81.72 1.49 82.71 1.51 82.72 2.49"/><polygon class="cls-4" points="83.69 3.46 82.7 3.45 82.69 2.46 83.68 2.48 83.69 3.46"/><polygon class="cls-4" points="84.67 4.44 83.68 4.43 83.67 3.44 84.66 3.46 84.67 4.44"/><rect class="cls-4" x="81.85" y="35.89" width=".97" height=".97" transform="translate(45.96 118.71) rotate(-90)"/><rect class="cls-4" x="80.91" y="34.95" width=".97" height=".97" transform="translate(45.96 116.83) rotate(-90)"/><rect class="cls-4" x="79.96" y="34" width=".97" height=".97" transform="translate(45.96 114.93) rotate(-90)"/><rect class="cls-4" x="79.02" y="33.05" width=".97" height=".97" transform="translate(45.96 113.05) rotate(-90)"/><rect class="cls-4" x="74.72" y="28.76" width=".97" height=".97" transform="translate(45.96 104.45) rotate(-90)"/><rect class="cls-4" x="73.78" y="27.81" width=".97" height=".97" transform="translate(45.96 102.57) rotate(-90)"/><rect class="cls-4" x="72.83" y="26.86" width=".97" height=".97" transform="translate(45.96 100.67) rotate(-90)"/><rect class="cls-4" x="71.89" y="25.92" width=".97" height=".97" transform="translate(45.96 98.78) rotate(-90)"/><rect class="cls-4" x="78.29" y="32.32" width=".97" height=".97" transform="translate(45.96 111.58) rotate(-90)"/><rect class="cls-4" x="77.34" y="31.38" width=".97" height=".97" transform="translate(45.96 109.7) rotate(-90)"/><rect class="cls-4" x="76.39" y="30.43" width=".97" height=".97" transform="translate(45.96 107.8) rotate(-90)"/><rect class="cls-4" x="75.45" y="29.49" width=".97" height=".97" transform="translate(45.96 105.91) rotate(-90)"/><rect class="cls-4" x="71.23" y="25.26" width=".97" height=".97" transform="translate(45.96 97.46) rotate(-90)"/><rect class="cls-4" x="70.28" y="24.32" width=".97" height=".97" transform="translate(45.96 95.58) rotate(-90)"/><rect class="cls-4" x="86.39" y="31.35" width=".97" height=".97" transform="translate(55.04 118.71) rotate(-90)"/><rect class="cls-4" x="85.45" y="30.41" width=".97" height=".97" transform="translate(55.04 116.83) rotate(-90)"/><rect class="cls-4" x="84.5" y="29.46" width=".97" height=".97" transform="translate(55.04 114.93) rotate(-90)"/><rect class="cls-4" x="83.56" y="28.51" width=".97" height=".97" transform="translate(55.04 113.05) rotate(-90)"/><rect class="cls-4" x="79.26" y="24.22" width=".97" height=".97" transform="translate(55.04 104.45) rotate(-90)"/><rect class="cls-4" x="78.32" y="23.27" width=".97" height=".97" transform="translate(55.04 102.57) rotate(-90)"/><rect class="cls-4" x="77.37" y="22.32" width=".97" height=".97" transform="translate(55.04 100.67) rotate(-90)"/><rect class="cls-4" x="76.43" y="21.38" width=".97" height=".97" transform="translate(55.04 98.78) rotate(-90)"/><rect class="cls-4" x="82.83" y="27.78" width=".97" height=".97" transform="translate(55.04 111.58) rotate(-90)"/><rect class="cls-4" x="81.88" y="26.84" width=".97" height=".97" transform="translate(55.04 109.7) rotate(-90)"/><rect class="cls-4" x="80.93" y="25.89" width=".97" height=".97" transform="translate(55.04 107.8) rotate(-90)"/><rect class="cls-4" x="79.99" y="24.95" width=".97" height=".97" transform="translate(55.04 105.91) rotate(-90)"/><rect class="cls-4" x="75.77" y="20.72" width=".97" height=".97" transform="translate(55.04 97.46) rotate(-90)"/><rect class="cls-4" x="74.83" y="19.78" width=".97" height=".97" transform="translate(55.04 95.58) rotate(-90)"/><rect class="cls-4" x="84.71" y="33.09" width=".97" height=".97"/><rect class="cls-4" x="85.65" y="32.15" width=".97" height=".97"/><rect class="cls-4" x="81.88" y="35.92" width=".97" height=".97"/><rect class="cls-4" x="82.83" y="34.98" width=".97" height=".97"/><rect class="cls-4" x="83.78" y="34.03" width=".97" height=".97"/><polygon class="cls-4" points="53.1 31.11 52.12 31.1 52.13 32.09 53.12 32.1 53.1 31.11"/><polygon class="cls-4" points="54.05 30.17 53.06 30.16 53.07 31.15 54.06 31.16 54.05 30.17"/><polygon class="cls-4" points="55 29.22 54.01 29.21 54.02 30.2 55.01 30.21 55 29.22"/><polygon class="cls-4" points="55.94 28.28 54.95 28.27 54.96 29.25 55.95 29.27 55.94 28.28"/><polygon class="cls-4" points="60.24 23.98 59.25 23.97 59.26 24.95 60.25 24.97 60.24 23.98"/><polygon class="cls-4" points="61.18 23.04 60.19 23.03 60.2 24.01 61.19 24.03 61.18 23.04"/><polygon class="cls-4" points="62.13 22.09 61.14 22.08 61.15 23.06 62.14 23.08 62.13 22.09"/><polygon class="cls-4" points="63.07 21.15 62.08 21.13 62.1 22.12 63.08 22.14 63.07 21.15"/><polygon class="cls-4" points="56.67 27.55 55.68 27.53 55.7 28.52 56.68 28.53 56.67 27.55"/><polygon class="cls-4" points="57.61 26.61 56.62 26.59 56.64 27.58 57.63 27.59 57.61 26.61"/><polygon class="cls-4" points="58.56 25.66 57.57 25.64 57.59 26.63 58.58 26.64 58.56 25.66"/><polygon class="cls-4" points="59.5 24.71 58.52 24.7 58.53 25.69 59.52 25.7 59.5 24.71"/><polygon class="cls-4" points="63.73 20.49 62.74 20.47 62.76 21.46 63.74 21.48 63.73 20.49"/><polygon class="cls-4" points="64.67 19.55 63.68 19.53 63.7 20.52 64.68 20.53 64.67 19.55"/><polygon class="cls-4" points="65.62 18.6 64.63 18.58 64.65 19.57 65.63 19.58 65.62 18.6"/><polygon class="cls-4" points="57.77 35.78 56.78 35.77 56.8 36.75 57.78 36.77 57.77 35.78"/><polygon class="cls-4" points="58.71 34.84 57.73 34.82 57.74 35.81 58.73 35.83 58.71 34.84"/><polygon class="cls-4" points="59.66 33.89 58.68 33.87 58.69 34.86 59.68 34.88 59.66 33.89"/><polygon class="cls-4" points="60.6 32.95 59.62 32.93 59.63 33.92 60.62 33.93 60.6 32.95"/><polygon class="cls-4" points="64.9 28.65 63.92 28.63 63.93 29.62 64.92 29.64 64.9 28.65"/><polygon class="cls-4" points="65.84 27.71 64.86 27.69 64.87 28.68 65.86 28.69 65.84 27.71"/><polygon class="cls-4" points="66.79 26.76 65.81 26.74 65.82 27.73 66.81 27.74 66.79 26.76"/><polygon class="cls-4" points="67.74 25.81 66.75 25.8 66.76 26.79 67.75 26.8 67.74 25.81"/><polygon class="cls-4" points="61.34 32.21 60.35 32.2 60.36 33.19 61.35 33.2 61.34 32.21"/><polygon class="cls-4" points="62.28 31.27 61.29 31.26 61.31 32.25 62.29 32.26 62.28 31.27"/><polygon class="cls-4" points="63.23 30.32 62.24 30.31 62.25 31.3 63.24 31.31 63.23 30.32"/><polygon class="cls-4" points="64.17 29.38 63.18 29.37 63.2 30.35 64.18 30.37 64.17 29.38"/><polygon class="cls-4" points="68.4 25.16 67.41 25.14 67.42 26.13 68.41 26.14 68.4 25.16"/><polygon class="cls-4" points="69.34 24.21 68.35 24.2 68.36 25.19 69.35 25.2 69.34 24.21"/><polygon class="cls-4" points="70.29 23.26 69.3 23.25 69.31 24.24 70.3 24.25 70.29 23.26"/><polygon class="cls-4" points="55.99 35.04 55.98 34.05 54.99 34.04 55 35.02 55.99 35.04"/><polygon class="cls-4" points="56.96 36.01 56.94 35.02 55.96 35 55.97 35.99 56.96 36.01"/><polygon class="cls-4" points="53.09 32.13 53.07 31.15 52.08 31.13 52.1 32.12 53.09 32.13"/><polygon class="cls-4" points="54.05 33.1 54.04 32.11 53.05 32.1 53.07 33.09 54.05 33.1"/><polygon class="cls-4" points="55.03 34.08 55.02 33.09 54.03 33.08 54.05 34.07 55.03 34.08"/><polygon class="cls-3" points="394.87 57.96 394.87 53.29 390.39 53.29 390.39 50.71 368.93 50.71 368.93 53.29 364.45 53.29 364.45 57.96 363.26 57.96 363.26 74.51 364.45 74.51 364.45 79.18 368.93 79.18 368.93 83.29 390.39 83.29 390.39 79.18 394.87 79.18 394.87 74.51 395.78 74.51 395.78 57.96 394.87 57.96"/><path class="cls-2" d="M402.12,57.96v-4.68h-1.7v-2.05h-3.18v-2.05h-2.36v-3.14h-4.48v-1.55h-21.46v1.55h-4.48v3.14h-2.36v2.05h-3.18v2.05h-1.7v4.68h-.87v16.54h.87v4.68h2.15v2.7h2.73v1.4h2.36v3.14h4.48v2.2h21.46v-2.2h4.48v-3.14h2.36v-1.4h3.63v-2.7h1.25v-4.68h.59v-16.54h-.59ZM394.87,74.51v4.68h-4.48v4.1h-21.46v-4.1h-4.48v-4.68h-1.19v-16.54h1.19v-4.68h4.48v-2.58h21.46v2.58h4.48v4.68h.91v16.54h-.91Z"/></svg>