<?xml version="1.0" encoding="UTF-8"?><svg id="zone_de_texte" xmlns="http://www.w3.org/2000/svg" viewBox="0 0 681.29 137.07"><defs><style>.cls-1{fill:#a0a3a3;}.cls-2{fill:#f2f2f2;}.cls-3{fill:#a0a0a0;}.cls-4{fill:#bfbfbf;}.cls-5{fill:#999;}.cls-6{fill:#a5a5a5;}</style></defs><rect class="cls-2" x="25.51" y="6.79" width="313.24" height="126.66"/><rect class="cls-1" x="28.26" y="0" width="35.55" height="19"/><rect class="cls-3" x="7.86" y="9.5" width="24.03" height="16.29"/><rect class="cls-6" y="22.17" width="31.89" height="92.74"/><rect class="cls-1" x="19.87" y="3.62" width="12.02" height="10.58"/><rect class="cls-1" x="27.88" y="121.69" width="35.55" height="15.37"/><rect class="cls-3" x="7.48" y="114.9" width="24.03" height="16.29"/><rect class="cls-4" y="31.21" width="31.51" height="76.45"/><rect class="cls-1" x="19.5" y="126.49" width="12.02" height="10.58"/><rect class="cls-5" x="40.15" y="129.83" width="283.06" height="7.24"/><rect class="cls-2" x="334.01" y="6.79" width="321.4" height="126.66" transform="translate(989.43 140.23) rotate(-180)"/><rect class="cls-1" x="617.49" y="0" width="35.55" height="19" transform="translate(1270.52 19) rotate(-180)"/><rect class="cls-3" x="649.4" y="9.5" width="24.03" height="16.29" transform="translate(1322.84 35.29) rotate(-180)"/><rect class="cls-6" x="649.4" y="22.17" width="31.89" height="92.74" transform="translate(1330.7 137.07) rotate(-180)"/><rect class="cls-1" x="649.4" y="3.62" width="12.02" height="10.58" transform="translate(1310.82 17.82) rotate(-180)"/><rect class="cls-1" x="617.86" y="121.69" width="35.55" height="15.37" transform="translate(1271.27 258.75) rotate(-180)"/><rect class="cls-3" x="649.78" y="114.9" width="24.03" height="16.29" transform="translate(1323.59 246.1) rotate(-180)"/><rect class="cls-4" x="649.78" y="31.21" width="31.51" height="76.45" transform="translate(1331.07 138.88) rotate(-180)"/><rect class="cls-1" x="649.78" y="126.49" width="12.02" height="10.58" transform="translate(1311.57 263.56) rotate(-180)"/><rect class="cls-5" x="319.92" y="129.83" width="321.22" height="7.24" transform="translate(961.07 266.89) rotate(-180)"/><rect class="cls-5" x="53.43" y="0" width="292.41" height="7.24"/><rect class="cls-5" x="344.8" y="0" width="283.06" height="7.24" transform="translate(972.66 7.24) rotate(-180)"/></svg>